<svg width="16" height="16" viewBox="0 0 36 36" fill="none" xmlns="http://www.w3.org/2000/svg">
<circle cx="18" cy="18" r="18" fill="#3D54F2"/>
<path d="M17.9172 20.5535C17.9172 23.1441 20.0185 25.2441 22.6106 25.2441C22.8202 25.2441 23.0265 25.2304 23.2288 25.2038C21.977 26.1763 20.4065 26.755 18.7014 26.755C14.6233 26.755 11.315 23.4446 11.2955 19.3536L11.2954 12.5175C11.3149 10.7068 12.7899 9.24496 14.6063 9.24496C16.4227 9.24496 17.8975 10.7068 17.917 12.5175L17.9172 20.5535Z" fill="white"/>
<path d="M22.6106 23.8624C24.4392 23.8624 25.9215 22.3809 25.9215 20.5535C25.9215 18.726 24.4392 17.2446 22.6106 17.2446C20.7821 17.2446 19.2997 18.726 19.2997 20.5535C19.2997 22.3809 20.7821 23.8624 22.6106 23.8624Z" fill="white"/>
</svg>
